<svg width="18" height="20" viewBox="0 0 18 20" fill="none" xmlns="http://www.w3.org/2000/svg">
<path d="M11.8571 17.4286C11.0952 18.5714 10.1428 19.1429 8.99999 19.1429C7.85714 19.1429 6.90475 18.5714 6.14285 17.4286M14.8109 15.7143H3.18911C2.14721 15.7143 1.30258 14.8697 1.30258 13.8278C1.30258 13.4858 1.3955 13.1503 1.57142 12.8571C2.69316 10.9876 3.28571 8.84829 3.28571 6.66802V5.42857C3.28571 2.90384 5.33241 0.857138 7.85714 0.857138H10.1428C12.6676 0.857138 14.7143 2.90384 14.7143 5.42857V6.66802C14.7143 8.84829 15.3068 10.9876 16.4286 12.8571C16.9646 13.7506 16.6749 14.9094 15.7815 15.4454C15.4883 15.6214 15.1528 15.7143 14.8109 15.7143Z" stroke="#FF855F" stroke-linecap="round" stroke-linejoin="round"/>
</svg>
